<?xml version="1.0" encoding="UTF-8" standalone="no"?>
<!-- Generator: Adobe Illustrator 12.0.1, SVG Export Plug-In . SVG Version: 6.00 Build 51448)  -->

<svg
   xmlns:osb="http://www.openswatchbook.org/uri/2009/osb"
   xmlns:dc="http://purl.org/dc/elements/1.1/"
   xmlns:cc="http://creativecommons.org/ns#"
   xmlns:rdf="http://www.w3.org/1999/02/22-rdf-syntax-ns#"
   xmlns:svg="http://www.w3.org/2000/svg"
   xmlns="http://www.w3.org/2000/svg"
   xmlns:xlink="http://www.w3.org/1999/xlink"
   xmlns:sodipodi="http://sodipodi.sourceforge.net/DTD/sodipodi-0.dtd"
   xmlns:inkscape="http://www.inkscape.org/namespaces/inkscape"
   version="1.1"
   id="Layer_1"
   width="364.167"
   height="318.333"
   viewBox="0 0 364.167 318.333"
   overflow="visible"
   enable-background="new 0 0 364.167 318.333"
   xml:space="preserve"
   inkscape:version="0.91 r13725"
   sodipodi:docname="greentickandredcross.svg"><metadata
     id="metadata47"><rdf:RDF><cc:Work
         rdf:about=""><dc:format>image/svg+xml</dc:format><dc:type
           rdf:resource="http://purl.org/dc/dcmitype/StillImage" /><dc:title></dc:title></cc:Work></rdf:RDF></metadata><defs
     id="defs45"><linearGradient
       inkscape:collect="always"
       xlink:href="#linearGradient4138"
       id="linearGradient4174"
       x1="9.0008698"
       y1="400"
       x2="790.99915"
       y2="400"
       gradientUnits="userSpaceOnUse"
       gradientTransform="matrix(0,0.15633029,-0.16362169,0,339.94344,170.14773)" /><linearGradient
       osb:paint="gradient"
       id="linearGradient4138"><stop
         style="stop-color:#d71313;stop-opacity:0.47843137"
         offset="0"
         id="stop4154" /><stop
         id="stop4176"
         offset="0.07518654"
         style="stop-color:#d51414;stop-opacity:0.50980392;" /><stop
         style="stop-color:#b02827;stop-opacity:1"
         offset="1"
         id="stop4152" /></linearGradient></defs><sodipodi:namedview
     pagecolor="#ffffff"
     bordercolor="#666666"
     borderopacity="1"
     objecttolerance="10"
     gridtolerance="10"
     guidetolerance="10"
     inkscape:pageopacity="0"
     inkscape:pageshadow="2"
     inkscape:window-width="1104"
     inkscape:window-height="763"
     id="namedview43"
     showgrid="false"
     inkscape:zoom="0.74136201"
     inkscape:cx="74.174002"
     inkscape:cy="159.1665"
     inkscape:window-x="192"
     inkscape:window-y="81"
     inkscape:window-maximized="0"
     inkscape:current-layer="g6" /><filter
     id="AI_GaussianBlur_4"><feGaussianBlur
       stdDeviation="4"
       id="feGaussianBlur4" /></filter><g
     id="g6"><g
       id="g8"
       transform="matrix(0.45120825,0,0,0.45954161,18.393394,21.169971)"><linearGradient
         id="XMLID_65_"
         gradientUnits="userSpaceOnUse"
         x1="20.841299"
         y1="160.21581"
         x2="338.67969"
         y2="160.21581"><stop
           offset="0"
           style="stop-color:#5C6470"
           id="stop11" /><stop
           offset="1"
           style="stop-color:#797F8D"
           id="stop13" /></linearGradient><path
         d="m 279.594,15.998 c -1.821,0.246 -3.521,1.213 -4.615,2.717 0,0 -123.926,167.272 -132.245,178.522 -9.5,-8.416 -65.03,-57.29 -65.03,-57.29 -1.395,-1.223 -3.24,-1.846 -5.098,-1.684 -1.846,0.138 -3.563,1.04 -4.744,2.464 L 22.4,196.163 c -2.393,2.92 -1.986,7.214 0.913,9.618 l 110.188,92.295 c 3.994,4.036 9.931,6.44 16.231,6.418 6.225,0.042 12.162,-2.362 16.637,-6.827 0.677,-0.773 171.14,-230.113 171.14,-230.113 2.203,-2.983 1.126,-7.546 -1.803,-9.853 L 284.768,17.426 c -1.444,-1.159 -3.326,-1.675 -5.174,-1.428 z M 144.525,214.134 c 1.912,-0.195 3.649,-1.183 4.777,-2.728 0,0 124.518,-168.068 132.493,-178.802 23.026,18.356 34.801,27.651 40.631,32.182 -7.709,10.36 -166.415,223.93 -166.415,223.93 -1.181,1.074 -3.619,2.061 -6.248,2.038 -2.737,0 -5.185,-0.988 -7.01,-2.812 -0.376,-0.365 -83.749,-70.182 -105.412,-88.322 6.28,-7.685 30.056,-36.675 36.637,-44.662 9.125,8.052 65.287,57.521 65.287,57.521 1.428,1.246 3.328,1.869 5.26,1.655 z"
         id="path15"
         style="fill:url(#XMLID_65_);filter:url(#AI_GaussianBlur_4)"
         inkscape:connector-curvature="0" /><linearGradient
         id="XMLID_66_"
         gradientUnits="userSpaceOnUse"
         x1="178.3188"
         y1="19.8276"
         x2="178.3188"
         y2="269.08029"><stop
           offset="0"
           style="stop-color:#6ABD45"
           id="stop18" /><stop
           offset="0.6685"
           style="stop-color:#06AD4D"
           id="stop20" /><stop
           offset="1"
           style="stop-color:#055448"
           id="stop22" /></linearGradient><path
         d="m 277.949,13.479 -3.35,4.491 -130.757,176.454 -0.965,0.528 -1.017,-0.339 -68.624,-60.441 -43.14,52.561 108.058,90.533 c 2.562,2.562 6.376,4.111 10.497,4.111 l 9.81,-3.413 C 159.172,277.181 323.404,56.203 323.404,56.203 l 3.137,-4.226 -48.592,-38.498 z"
         id="path24"
         style="fill:url(#XMLID_66_)"
         inkscape:connector-curvature="0" /><linearGradient
         id="XMLID_67_"
         gradientUnits="userSpaceOnUse"
         x1="121.9199"
         y1="-31.549801"
         x2="192.1555"
         y2="164.10899"><stop
           offset="0"
           style="stop-color:#6ABD45"
           id="stop27" /><stop
           offset="0.6348"
           style="stop-color:#06AD4D"
           id="stop29" /><stop
           offset="0.7442"
           style="stop-color:#0C864E"
           id="stop31" /><stop
           offset="0.8524"
           style="stop-color:#096A4C"
           id="stop33" /><stop
           offset="0.9414"
           style="stop-color:#045A49"
           id="stop35" /><stop
           offset="1"
           style="stop-color:#055448"
           id="stop37" /></linearGradient><path
         d="m 275.201,6.393 c -1.797,0.243 -3.475,1.196 -4.555,2.679 0,0 -122.301,165.075 -130.511,176.177 -9.376,-8.306 -64.178,-56.532 -64.178,-56.532 -1.376,-1.208 -3.198,-1.822 -5.031,-1.664 -1.822,0.138 -3.517,1.028 -4.681,2.431 L 21.379,184.19 c -2.361,2.881 -1.96,7.119 0.901,9.492 l 108.743,91.085 c 3.941,3.982 9.801,6.355 16.019,6.334 6.144,0.042 12.003,-2.331 16.419,-6.738 0.668,-0.763 168.896,-227.088 168.896,-227.088 2.174,-2.946 1.111,-7.449 -1.779,-9.726 L 280.309,7.8 C 278.883,6.656 277.025,6.147 275.201,6.393 Z M 141.904,201.924 c 1.887,-0.192 3.602,-1.167 4.715,-2.692 0,0 122.885,-165.858 130.756,-176.452 22.725,18.114 34.344,27.289 40.098,31.758 -7.607,10.224 -164.233,220.99 -164.233,220.99 -1.166,1.059 -3.571,2.033 -6.166,2.011 -2.701,0 -5.116,-0.975 -6.918,-2.774 -0.371,-0.361 -82.651,-69.262 -104.03,-87.164 6.198,-7.585 29.662,-36.188 36.157,-44.069 9.005,7.944 64.431,56.759 64.431,56.759 1.408,1.23 3.283,1.845 5.19,1.633 z"
         id="path39"
         style="fill:url(#XMLID_67_)"
         inkscape:connector-curvature="0" /></g><rect
       fill="none"
       width="364.167"
       height="318.333"
       id="rect41" /><path
       d="m 254.86016,232.67985 -40.90542,-39.08257 19.63461,-18.75964 40.90541,39.08257 40.90543,-39.08257 19.6346,18.75964 -40.90542,39.08257 40.90542,39.08257 -19.6346,18.75963 -40.90543,-39.08256 -40.90541,39.08256 -19.63461,-18.75963 40.90542,-39.08257 z"
       id="path4"
       style="fill:url(#linearGradient4174);fill-opacity:1;stroke:#b02827;stroke-width:6.71724653;stroke-linejoin:round"
       inkscape:connector-curvature="0" /><text
       xml:space="preserve"
       style="font-style:normal;font-weight:normal;font-size:128.07887268px;line-height:125%;font-family:sans-serif;letter-spacing:0px;word-spacing:0px;fill:#787a7b;fill-opacity:1;stroke:#353435;stroke-width:6.1;stroke-linecap:butt;stroke-linejoin:miter;stroke-opacity:0.45896655;stroke-miterlimit:4;stroke-dasharray:none;"
       x="125.87788"
       y="218.04257"
       id="text4191"
       sodipodi:linespacing="125%"
       transform="scale(1.1546319,0.86607689)"><tspan
         sodipodi:role="line"
         id="tspan4193"
         x="125.87788"
         y="218.04257">?</tspan></text>
</g></svg>